<?xml version="1.0" encoding="UTF-8" standalone="no"?>
<svg width="17px" height="17px" viewBox="0 0 17 17" version="1.1" xmlns="http://www.w3.org/2000/svg" xmlns:xlink="http://www.w3.org/1999/xlink" xmlns:sketch="http://www.bohemiancoding.com/sketch/ns">
    <!-- Generator: sketchtool 3.4.4 (395) - http://www.bohemiancoding.com/sketch -->
    <title>noun_101408_cc</title>
    <desc>Created with sketchtool.</desc>
    <defs></defs>
    <g id="Welcome" stroke="none" stroke-width="1" fill="none" fill-rule="evenodd" sketch:type="MSPage">
        <g id="Feed-page" sketch:type="MSArtboardGroup" transform="translate(-1117.000000, -63.000000)" fill="#981937">
            <g id="Group" sketch:type="MSLayerGroup" transform="translate(0.000000, -2.000000)">
                <g id="noun_101408_cc" transform="translate(1117.000000, 65.000000)" sketch:type="MSShapeGroup">
                    <g id="Group">
                        <path d="M10.7295082,8.55483871 C11.9557377,7.70483871 12.8196721,6.2516129 12.8196721,4.66129032 C12.8196721,2.16612903 10.7295082,0 8.36065574,0 C5.99180328,0 3.90163934,2.16612903 3.90163934,4.66129032 C3.90163934,6.2516129 4.76557377,7.70483871 5.99180328,8.55483871 C2.53606557,9.56935484 0,12.7225806 0,16.4516129 C0,16.7532258 0.250819672,17 0.557377049,17 L16.442623,17 C16.7491803,17 17,16.7532258 17,16.4516129 C17,13.8193548 14.8271004,9.71378843 10.7295082,8.55483871 Z M5.01639344,4.66129032 C5.01639344,2.98870968 6.43770492,1.09677419 8.36065574,1.09677419 C10.2836066,1.09677419 11.704918,2.98870968 11.704918,4.66129032 C11.704918,6.33387097 10.2836066,8.22580645 8.36065574,8.22580645 C6.43770492,8.22580645 5.01639344,6.33387097 5.01639344,4.66129032 L5.01639344,4.66129032 Z M1.14262295,15.9032258 C1.42131148,12.2290323 4.5704918,9.32258065 8.36065574,9.32258065 C12.1508197,9.32258065 15.3,12.2290323 15.5786885,15.9032258 L1.14262295,15.9032258 L1.14262295,15.9032258 Z" id="Shape"></path>
                    </g>
                </g>
            </g>
        </g>
    </g>
</svg>