<?xml version="1.0" encoding="UTF-8" standalone="no"?>
<svg width="19px" height="17px" viewBox="0 0 19 17" version="1.1" xmlns="http://www.w3.org/2000/svg" xmlns:xlink="http://www.w3.org/1999/xlink" xmlns:sketch="http://www.bohemiancoding.com/sketch/ns">
    <!-- Generator: sketchtool 3.5.2 (25235) - http://www.bohemiancoding.com/sketch -->
    <title>noun_60312_cc</title>
    <desc>Created with sketchtool.</desc>
    <defs></defs>
    <g id="Page-1" stroke="none" stroke-width="1" fill="none" fill-rule="evenodd" sketch:type="MSPage">
        <g id="homepage" sketch:type="MSArtboardGroup" transform="translate(-946.000000, -63.000000)" fill="#981937">
            <g id="Group" sketch:type="MSLayerGroup">
                <g id="noun_60312_cc" transform="translate(946.000000, 63.000000)" sketch:type="MSShapeGroup">
                    <g id="Group">
                        <path d="M18.3599111,7.594325 C18.3459778,7.701425 18.2049556,7.9186 17.9636556,8.2209875 C17.8093333,8.432 17.6427667,8.6332375 17.4584667,8.8172625 C15.1966222,11.38065 9.4734,16.8438125 9.4734,16.8438125 C9.4734,16.8438125 3.75017778,11.38065 1.48854444,8.817475 C1.30424444,8.6332375 1.13788889,8.432 0.983355556,8.2212 C0.742055556,7.9188125 0.601244444,7.7016375 0.5871,7.5945375 C0.213433333,6.886275 0,6.079625 0,5.221975 C0,2.4242 2.25318889,0.1561875 5.03267778,0.1561875 C6.95611111,0.1561875 8.62621111,1.243125 9.4734,2.839425 C10.3205889,1.243125 11.9906889,0.1561875 13.9141222,0.1561875 C16.6936111,0.1561875 18.9468,2.4242 18.9468,5.221975 C18.9470111,6.079625 18.7335778,6.886275 18.3599111,7.594325 L18.3599111,7.594325 Z M13.9141222,1.3481 C13.7408,1.3481 13.5712778,1.3636125 13.4038667,1.3861375 C13.3612222,1.391875 13.319,1.3984625 13.2767778,1.4056875 C13.1243556,1.4314 12.9742556,1.464125 12.8285889,1.50705 C12.8161333,1.510875 12.8032556,1.513 12.7910111,1.516825 C12.6299333,1.5663375 12.4749778,1.628175 12.3236111,1.69745 C12.2951111,1.710625 12.2672444,1.72465 12.2389556,1.7384625 C12.1025778,1.8051875 11.9706333,1.8791375 11.8437556,1.9607375 L11.8416444,1.9441625 C11.8416444,1.9441625 11.6723333,2.0708125 11.4263889,2.2739625 C11.4158333,2.2831 11.4038,2.2901125 11.3934556,2.29925 C11.3864889,2.3052 11.3799444,2.311575 11.3734,2.3177375 C10.8606111,2.745925 10.0374889,3.7083375 9.4734,4.5409125 C8.90931111,3.7083375 8.08618889,2.745925 7.5734,2.3177375 C7.56685556,2.311575 7.5601,2.3052 7.55334444,2.29925 C7.54278889,2.2901125 7.53075556,2.2831 7.5202,2.2739625 C7.27425556,2.0708125 7.10494444,1.9441625 7.10494444,1.9441625 L7.10283333,1.9607375 C6.97595556,1.8791375 6.84401111,1.804975 6.70763333,1.7384625 C6.67955556,1.72465 6.65168889,1.710625 6.62318889,1.69745 C6.47182222,1.628175 6.31686667,1.5663375 6.15578889,1.516825 C6.14333333,1.513 6.13045556,1.510875 6.11821111,1.50705 C5.97233333,1.4639125 5.82244444,1.4311875 5.67002222,1.4056875 C5.6278,1.398675 5.58557778,1.391875 5.54293333,1.3861375 C5.37552222,1.363825 5.20621111,1.3481 5.03267778,1.3481 C2.90721111,1.3481 1.18412222,3.082525 1.18412222,5.221975 C1.18412222,5.374125 1.1951,5.523725 1.21198889,5.6712 C1.21705556,5.714975 1.22528889,5.7576875 1.23162222,5.8010375 C1.24745556,5.9064375 1.26645556,6.0105625 1.29052222,6.1132 C1.30107778,6.1580375 1.31247778,6.2022375 1.32451111,6.2464375 C1.35301111,6.3509875 1.38594444,6.4534125 1.42267778,6.55435 C1.43534444,6.5892 1.44695556,6.624475 1.46067778,6.6586875 C1.51345556,6.7915 1.57172222,6.92155 1.63822222,7.0467125 L1.63822222,7.0467125 C1.6872,7.138725 1.74631111,7.2239375 1.80225556,7.3110625 C1.80077778,7.312975 1.79592222,7.319775 1.79465556,7.3212625 C1.54364444,7.6123875 9.09551111,14.985075 9.4734,15.26685 C9.85128889,14.985075 17.4029444,7.6123875 17.1521444,7.3212625 C17.1508778,7.319775 17.1460222,7.312975 17.1445444,7.3110625 C17.2002778,7.223725 17.2596,7.138725 17.3085778,7.0467125 L17.3085778,7.0467125 C17.3752889,6.92155 17.4333444,6.7915 17.4861222,6.6586875 C17.4998444,6.6242625 17.5112444,6.5889875 17.5241222,6.55435 C17.5608556,6.4534125 17.5937889,6.3509875 17.6222889,6.2464375 C17.6343222,6.2022375 17.6457222,6.1580375 17.6562778,6.1132 C17.6803444,6.010775 17.6993444,5.90665 17.7151778,5.8010375 C17.7217222,5.7576875 17.7297444,5.714975 17.7348111,5.6712 C17.7517,5.5235125 17.7626778,5.374125 17.7626778,5.221975 C17.7626778,3.082525 16.0398,1.3481 13.9141222,1.3481 L13.9141222,1.3481 Z" id="Shape"></path>
                    </g>
                </g>
            </g>
        </g>
    </g>
</svg>