<svg id="Layer_1" data-name="Layer 1" xmlns="http://www.w3.org/2000/svg" viewBox="0 0 20 17.74"><defs><style>.cls-1{fill:#981937;}</style></defs><title>cart</title><g id="Page-1"><g id="homepage"><g id="Group"><g id="noun_218423_cc" data-name="noun 218423 cc"><g id="Group-2" data-name="Group"><path id="Shape" class="cls-1" d="M7.73,17.87a2.21,2.21,0,1,1,0-4.41,2.21,2.21,0,1,1,0,4.41h0Zm0-3.24a1,1,0,1,0,1.07,1,1,1,0,0,0-1.07-1h0Z" transform="translate(0 -0.13)"/><path id="Shape-2" data-name="Shape" class="cls-1" d="M15.6,17.87a2.21,2.21,0,1,1,2.29-2.21,2.25,2.25,0,0,1-2.29,2.21h0Zm0-3.24a1,1,0,1,0,0,2.06,1.06,1.06,0,0,0,1.07-1,1,1,0,0,0-1.07-1h0Z" transform="translate(0 -0.13)"/><path id="Shape-3" data-name="Shape" class="cls-1" d="M17.31,11.74H5.6L2.36,1.31H0V0.13H3.27l0.93,3H20l-2.69,8.61h0ZM6.53,10.56H16.4l2-6.24H4.58l2,6.24h0Z" transform="translate(0 -0.13)"/></g></g></g></g></g></svg>
